# xmcd
#
# Track frame offsets:
#	150
#	19134
#	34589
#	51873
#	65532
#	81523
#	96988
#	113705
#	129134
#	145272
#	158026
#	176726
#	191696
#
# Disc length: 2740 seconds
#
# Revision: 1
# Processed by: cddbd v1.5.2PL0 Copyright (c) Steve Scherf et al.
# Submitted via: audiograbber 1.83.01
#
DISCID=af0ab20d
DTITLE=Honeymen - High Rise Fever
DYEAR=2009
DGENRE=Blues
TTITLE0=High rise fever
TTITLE1=hate to see you go  
TTITLE2=I'm leaving you baby
TTITLE3=Tell me pretty mama
TTITLE4=I walk down the road 
TTITLE5=Two time woman
TTITLE6=Fourty four blues
TTITLE7=Hello miss Jessie Lee  
TTITLE8=Walkin' around here in circles
TTITLE9=Little girl  
TTITLE10=Death bell
TTITLE11=I'd rather deal with the devil
TTITLE12=Lightnin' rocket
EXTD=Band from Kemper - Brittany - France\n
EXTT0=
EXTT1=(Walter Jacobs)
EXTT2=(Otis Hick)
EXTT3=
EXTT4=(Guillaume Toquereau)
EXTT5=
EXTT6=(Roosevelt Sykes)
EXTT7=(Eddie Burns)
EXTT8=
EXTT9=(Ellas McDaniels aka Bo Diddley)
EXTT10=
EXTT11=
EXTT12=
PLAYORDER=
